<svg xmlns="http://www.w3.org/2000/svg" viewBox="0 0 64 64">
  <defs>
    <linearGradient id="bg" x1="0%" y1="0%" x2="100%" y2="100%">
      <stop offset="0%" stop-color="#7C3AED"/>
      <stop offset="100%" stop-color="#4F46E5"/>
    </linearGradient>
  </defs>
  <rect width="64" height="64" rx="12" fill="url(#bg)"/>
  <g transform="translate(18, 6) scale(0.55)" fill="white">
    <path d="M50 5 C50 5, 50 75, 50 80 C50 90, 35 95, 28 90 C21 85, 22 75, 30 72 C38 69, 46 72, 46 72 L46 25 L20 32 L20 85 C20 95, 5 100, -2 95 C-9 90, -8 80, 0 77 C8 74, 16 77, 16 77 L16 18 Z"/>
  </g>
</svg>
